<svg width="960" height="720" viewBox="0 0 960 720" fill="none" xmlns="http://www.w3.org/2000/svg">
  <rect width="960" height="720" rx="36" fill="#FFF9F1"/>
  <rect x="36" y="36" width="888" height="96" rx="24" fill="#17252D"/>
  <circle cx="94" cy="84" r="14" fill="#EF6E3D"/>
  <rect x="134" y="68" width="240" height="32" rx="16" fill="#3A4C55"/>
  <rect x="36" y="168" width="280" height="220" rx="28" fill="#F4E2D4"/>
  <rect x="342" y="168" width="582" height="220" rx="28" fill="#17252D"/>
  <rect x="378" y="204" width="260" height="24" rx="12" fill="#5F6C72"/>
  <rect x="378" y="248" width="490" height="108" rx="22" fill="#FFF9F1"/>
  <rect x="36" y="420" width="420" height="264" rx="28" fill="#17252D"/>
  <rect x="492" y="420" width="432" height="264" rx="28" fill="#F4E2D4"/>
  <rect x="72" y="462" width="188" height="22" rx="11" fill="#5F6C72"/>
  <rect x="72" y="504" width="348" height="122" rx="18" fill="#FFF9F1"/>
  <circle cx="708" cy="552" r="74" fill="#EF6E3D"/>
  <path d="M672 592L708 522L744 592H726L708 559L690 592H672Z" fill="#17252D"/>
</svg>
